<svg version="1" xmlns="http://www.w3.org/2000/svg" width="682.667" height="682.667" viewBox="0 0 512.000000 512.000000"><path d="M296.8 58.3c-13.7 11.6-24.8 17.4-42 22.2-4.2 1.1-6.3 2.3-7.8 4.5-1.7 2.4-6.5 18-9.4 31-2.8 12.4.6 11.5-41.5 11.6-41.1.1-39.8-.1-42.7 8.7-2.6 8-9.4 17.9-20.3 29.7-2.8 3-5.1 6.4-5.1 7.5 0 3.9 1.2 6.4 3.4 7.2 1.1.4 21.2.7 44.5.8h42.3l1.9 2.4c2.3 2.9 2.3 3.9 0 18.1-1.1 6.3-2.2 13.3-2.5 15.5-.6 3.9-2 11.8-3.1 18-.3 1.6-.7 4.6-1 6.5-.3 1.9-.7 4.6-1 6-.3 1.4-.8 4.4-1.1 6.6-.2 2.3-.7 5.3-.9 6.5-.3 1.3-1 5.1-1.5 8.4-.6 3.3-1.2 7.1-1.5 8.5-.2 1.4-.6 4.1-.9 6-.3 1.9-1.9 11.8-3.6 22-1.7 10.2-3.3 19.8-3.6 21.5-.2 1.6-.9 5.5-1.4 8.5-.5 3-1.2 7.1-1.5 9-.3 1.9-1 6.2-1.6 9.5-.6 3.3-1.3 7.6-1.5 9.5-.2 1.9-.9 5.7-1.4 8.5-4.9 24.2-2.8 38.4 7 46.7 7.8 6.7 10.2 7.1 50.5 7.4 26.7.2 36.7 0 38.4-.9 1.4-.7 4.9-4.4 7.8-8.2 9-11.8 21.7-24 32.1-31 2.4-1.6 4.8-3.7 5.3-4.7 1.3-2.4.3-7.5-1.6-8.2-.8-.3-16.4-.5-34.7-.5h-33.3l-2.7-3.1c-1.6-1.7-2.8-4.2-2.8-5.8 0-2.3 1.4-10.9 5.5-34.7.8-4.3.8-4.5 2-12 .4-2.8.9-5.9 1.1-7 .2-1.1 1.3-7.4 2.4-14 1.1-6.6 2.2-13.1 2.5-14.5.3-1.4.7-3.9 1-5.7.2-1.8.9-5.8 1.4-9 .6-3.2 1.3-7.4 1.6-9.3.3-1.9 1.2-7.6 2.1-12.5.9-5 3.5-20.4 5.8-34.3 3.6-21.2 4.7-25.7 6.5-27.5 2.1-2.1 2.6-2.2 37.3-2.2h35.2l1.2-6.6c2.6-13.9 11.6-28.3 23.4-37.4 3.3-2.5 6-5 6-5.5s-.7-1.6-1.6-2.4c-1.4-1.4-6.7-1.6-44-1.6h-42.5l-2.4-2.5c-1.4-1.3-2.5-3-2.5-3.8 0-.8 1.4-10.1 3-20.8 7.2-45.9 7.1-45.2 2.2-47-1.8-.7-3.3.1-8.4 4.4z"/></svg>